HIERARCHY
ROOT SpineBase
{
  OFFSET 0.000000 0.000000 0.000000
  CHANNELS 6 Xposition Yposition Zposition Zrotation Xrotation Yrotation
  JOINT SpineMid
  {
    OFFSET 0.000000 29.756178 0.000000
    CHANNELS 3 Zrotation Xrotation Yrotation
    JOINT SpineShoulder
    {
      OFFSET 0.207750 22.211427 -0.865739
      CHANNELS 3 Zrotation Xrotation Yrotation
      JOINT Neck
      {
        OFFSET 0.121656 7.382910 -0.631251
        CHANNELS 3 Zrotation Xrotation Yrotation
        JOINT Head
        {
          OFFSET -0.073925 15.031453 -2.003159
          CHANNELS 3 Zrotation Xrotation Yrotation
          End Site
          {
            OFFSET 0 0 0
          }
        }
      }
      JOINT ShoulderLeft
      {
        OFFSET -17.232818 -1.577831 -2.322274
        CHANNELS 3 Zrotation Xrotation Yrotation
        JOINT ElbowLeft
        {
          OFFSET -4.793437 -25.801436 -0.848474
          CHANNELS 3 Zrotation Xrotation Yrotation
          JOINT WristLeft
          {
            OFFSET -0.783445 -21.068612 -4.685093
            CHANNELS 3 Zrotation Xrotation Yrotation
            JOINT HandLeft
            {
              OFFSET 1.129984 -4.851942 0.571544
              CHANNELS 3 Zrotation Xrotation Yrotation
              JOINT HandTipLeft
              {
                OFFSET 0.036310 -7.114265 -1.391733
                CHANNELS 3 Zrotation Xrotation Yrotation
                End Site
                {
                  OFFSET 0 0 0
                }
              }
              JOINT ThumbLeft
              {
                OFFSET 3.388996 0.117142 -1.328686
                CHANNELS 3 Zrotation Xrotation Yrotation
                End Site
                {
                  OFFSET 0 0 0
                }
              }
            }
          }
        }
      }
      JOINT ShoulderRight
      {
        OFFSET 17.264819 -2.787392 0.615422
        CHANNELS 3 Zrotation Xrotation Yrotation
        JOINT ElbowRight
        {
          OFFSET 4.075418 -27.569423 1.897573
          CHANNELS 3 Zrotation Xrotation Yrotation
          JOINT WristRight
          {
            OFFSET -0.312573 -21.393275 -4.807681
            CHANNELS 3 Zrotation Xrotation Yrotation
            JOINT HandRight
            {
              OFFSET -2.878940 -4.696326 -1.032315
              CHANNELS 3 Zrotation Xrotation Yrotation
              JOINT HandTipRight
              {
                OFFSET 0.602212 -5.409295 0.057118
                CHANNELS 3 Zrotation Xrotation Yrotation
                End Site
                {
                  OFFSET 0 0 0
                }
              }
              JOINT ThumbRight
              {
                OFFSET 3.170913 -1.137332 -0.926768
                CHANNELS 3 Zrotation Xrotation Yrotation
                End Site
                {
                  OFFSET 0 0 0
                }
              }
            }
          }
        }
      }
    }
  }
  JOINT HipLeft
  {
    OFFSET -7.309294 0.947866 -3.845779
    CHANNELS 3 Zrotation Xrotation Yrotation
    JOINT KneeLeft
    {
      OFFSET -5.074820 -27.004061 -2.767887
      CHANNELS 3 Zrotation Xrotation Yrotation
      JOINT AnkleLeft
      {
        OFFSET -1.454859 -36.192677 6.649436
        CHANNELS 3 Zrotation Xrotation Yrotation
        JOINT FootLeft
        {
          OFFSET 1.034751 -2.154935 -11.113356
          CHANNELS 3 Zrotation Xrotation Yrotation
          End Site
          {
            OFFSET 0 0 0
          }
        }
      }
    }
  }
  JOINT HipRight
  {
    OFFSET 7.870341 0.921571 -2.845724
    CHANNELS 3 Zrotation Xrotation Yrotation
    JOINT KneeRight
    {
      OFFSET 1.575100 -27.423627 0.873611
      CHANNELS 3 Zrotation Xrotation Yrotation
      JOINT AnkleRight
      {
        OFFSET -4.372787 -37.569174 10.872047
        CHANNELS 3 Zrotation Xrotation Yrotation
        JOINT FootRight
        {
          OFFSET 0.864238 -2.164623 -11.134531
          CHANNELS 3 Zrotation Xrotation Yrotation
          End Site
          {
            OFFSET 0 0 0
          }
        }
      }
    }
  }
}
MOTION
Frames: 10
Frame Time: 0.033333
-30.028264 72.983193 348.249170 -0.000000 0.000000 -3.769275 0.000000 0.000000 3.769275 -0.000000 0.000000 0.000000 -0.000000 0.000000 0.000000 0.000000 0.000000 0.000000 -0.000000 0.000000 0.000000 -0.000000 0.000000 0.000000 -0.000000 0.000000 0.000000 -0.000000 0.000000 0.000000 0.000000 0.000000 0.000000 0.000000 0.000000 0.000000 -0.000000 0.000000 0.000000 -0.000000 0.000000 0.000000 -0.000000 0.000000 0.000000 -0.000000 0.000000 0.000000 0.000000 0.000000 0.000000 0.000000 0.000000 0.000000 0.000000 0.000000 3.769275 -0.000000 0.000000 0.000000 -0.000000 0.000000 0.000000 0.000000 0.000000 0.000000 0.000000 0.000000 3.769275 -0.000000 0.000000 0.000000 -0.000000 0.000000 0.000000 0.000000 0.000000 0.000000
-30.037487 72.905486 348.313671 -0.063693 -0.107506 -3.726180 0.056572 0.111418 3.726065 -0.000000 0.000000 0.000000 -0.000000 0.000000 0.000000 0.000000 0.000000 0.000000 -0.000000 0.000000 0.000000 -0.000000 0.000000 0.000000 2.704167 -0.134815 0.288759 -3.862644 0.115289 -0.052844 0.000000 0.000000 0.000000 0.000000 0.000000 0.000000 -0.000000 0.000000 0.000000 -0.000000 0.000000 0.000000 -4.318855 0.406514 0.699202 1.854781 5.205219 0.038533 0.000000 0.000000 0.000000 0.000000 0.000000 0.000000 0.056572 0.111418 3.726065 -0.000000 0.000000 0.000000 -0.000000 0.000000 0.000000 0.000000 0.000000 0.000000 0.056572 0.111418 3.726065 -0.000000 0.000000 0.000000 -0.000000 0.000000 0.000000 0.000000 0.000000 0.000000
-30.046418 72.834710 348.371742 -0.126359 -0.208846 -3.672854 0.112722 0.216511 3.672411 -0.000000 0.000000 0.000000 -0.000000 0.000000 0.000000 0.000000 0.000000 0.000000 0.399916 -1.216377 0.217300 0.093872 2.121310 -0.364544 4.959340 -0.860253 0.862854 -7.574615 0.021844 -0.221726 0.000000 0.000000 0.000000 0.000000 0.000000 0.000000 -0.000000 0.000000 0.000000 -0.000000 0.000000 0.000000 -8.925507 0.827273 1.451515 4.652729 8.569917 -0.004657 0.000000 0.000000 0.000000 0.000000 0.000000 0.000000 0.913983 -0.095856 3.659864 -0.779696 0.362867 0.014172 -0.000000 0.000000 0.000000 0.000000 0.000000 0.000000 0.112722 0.216511 3.672411 -0.000000 0.000000 0.000000 -0.000000 0.000000 0.000000 0.000000 0.000000 0.000000
-30.055055 72.770865 348.423385 -0.188057 -0.304141 -3.609331 0.168540 0.315375 3.608368 -0.000000 0.000000 0.000000 -0.000000 0.000000 0.000000 0.000000 0.000000 0.000000 0.533590 -1.674416 0.301754 0.199776 2.962652 -0.522632 7.354656 -0.694372 1.404528 -11.005793 -0.333812 -0.540030 0.000000 0.000000 0.000000 0.000000 0.000000 0.000000 -0.000000 0.000000 0.000000 -0.000000 0.000000 0.000000 -13.417868 1.242907 2.184237 7.802245 10.545248 -0.107624 0.000000 0.000000 0.000000 0.000000 0.000000 0.000000 1.265728 -0.111453 3.589918 -1.068329 0.494668 0.021109 -0.000000 0.000000 0.000000 0.000000 0.000000 0.000000 0.964958 -0.101863 3.604574 -0.768622 0.466473 0.005438 -0.000000 0.000000 0.000000 0.000000 0.000000 0.000000
-30.063399 72.713949 348.468598 -0.248844 -0.393501 -3.535668 0.224109 0.408095 3.534015 -0.000000 0.000000 0.000000 -0.000000 0.000000 0.000000 0.000000 0.000000 0.000000 0.624689 -2.038520 0.369921 0.341487 3.663945 -0.664553 9.468486 -0.070049 1.959730 -13.998647 -0.987989 -1.031443 0.000000 0.000000 0.000000 0.000000 0.000000 0.000000 -0.000000 0.000000 0.000000 -0.000000 0.000000 0.000000 -17.236580 1.642274 2.791058 10.596505 11.486353 -0.192399 0.000000 0.000000 0.000000 0.000000 0.000000 0.000000 1.548816 -0.105827 3.509918 -2.062889 1.103134 -0.123629 0.773186 -0.507342 0.165782 0.000000 0.000000 0.000000 1.178829 -0.074741 3.529590 -1.742087 0.751348 -0.246176 0.819755 -0.207068 0.262895 0.000000 0.000000 0.000000
-30.071450 72.663965 348.507382 -0.308773 -0.477025 -3.451946 0.279502 0.494745 3.449454 -0.000000 0.000000 0.000000 -0.000000 0.000000 0.000000 0.000000 0.000000 0.000000 0.673976 -2.312019 0.421765 0.517127 4.228615 -0.789896 11.121990 1.010708 2.480875 -16.390839 -1.951079 -1.697740 0.000000 0.000000 0.000000 0.000000 0.000000 0.000000 -0.000000 0.000000 0.000000 -0.000000 0.000000 0.000000 -19.796018 2.024117 3.156707 12.348531 11.666063 -0.187777 0.000000 0.000000 0.000000 0.000000 0.000000 0.000000 1.764100 -0.079023 3.420036 -2.306697 1.265535 -0.135319 0.860354 -0.602086 0.186669 0.000000 0.000000 0.000000 1.341197 -0.017936 3.444755 -1.953478 0.766063 -0.273306 0.925355 -0.186010 0.291081 0.000000 0.000000 0.000000
-30.089444 72.607573 348.550188 -0.382324 -0.560582 -3.370275 0.348726 0.582077 3.366634 -0.000000 0.000000 0.000000 0.730467 0.367611 0.096849 0.000000 0.000000 0.000000 0.739799 -2.427309 0.443200 0.530657 4.562796 -0.841166 9.486738 1.831534 2.501189 -14.876579 -2.854955 -1.907454 0.000000 0.000000 0.000000 0.000000 0.000000 0.000000 0.822272 -0.256727 0.020464 -2.194323 0.298424 0.297565 -20.804150 -0.281950 4.235756 15.849818 13.241664 -2.161812 0.000000 0.000000 0.000000 0.000000 0.000000 0.000000 1.755384 0.050126 3.333364 -2.158192 1.268343 -0.124863 0.786281 -0.653663 0.175086 0.000000 0.000000 0.000000 1.514872 0.086019 3.363619 -2.155454 0.689852 -0.296808 1.021026 -0.120818 0.310846 0.000000 0.000000 0.000000
-30.118749 72.560949 348.610817 -0.431368 -0.611685 -3.284079 0.395643 0.635376 3.279583 -0.000000 0.000000 0.000000 0.770198 0.552146 0.101708 0.000000 0.000000 0.000000 1.353203 -2.426288 0.436242 -1.113468 4.193184 -0.503832 9.025004 4.591624 2.419864 -15.950017 -5.211795 -2.397154 0.000000 0.000000 0.000000 0.000000 0.000000 0.000000 -0.000000 0.000000 0.000000 -0.978178 -0.845347 0.225310 -16.875256 0.463298 3.811391 10.149892 11.851060 -1.696276 0.000000 0.000000 0.000000 0.000000 0.000000 0.000000 1.835003 0.108650 3.240216 -2.183166 1.367813 -0.122336 0.579787 -0.872603 1.148474 0.000000 0.000000 0.000000 1.645730 0.227575 3.281690 -2.293069 0.527109 -0.311534 0.873988 -0.172404 1.274136 0.000000 0.000000 0.000000
-30.123548 72.545131 348.628715 -0.472521 -0.654509 -3.161098 0.435742 0.679549 3.155815 -0.000000 0.000000 0.000000 0.703788 0.576291 0.093145 0.000000 0.000000 0.000000 1.115054 -2.432111 0.440011 -0.721627 4.030025 -0.553912 10.678661 8.605537 3.103619 -17.978278 -8.756743 -4.391013 0.000000 0.000000 0.000000 0.000000 0.000000 0.000000 -0.000000 0.000000 0.000000 -1.468956 -1.229924 0.333077 -8.662678 6.371418 -0.559091 0.264851 5.224650 2.404611 0.000000 0.000000 0.000000 0.000000 0.000000 0.000000 1.915692 0.121243 3.117114 -2.206318 1.429862 -0.121223 0.669498 1.778856 1.668473 0.000000 0.000000 0.000000 1.597108 0.325734 3.157982 -2.186170 0.366769 -0.297532 0.814803 -0.087836 1.439250 0.000000 0.000000 0.000000
-30.096806 72.537824 348.587373 -0.536587 -0.735466 -2.973070 0.497764 0.762277 2.966315 -0.000000 0.000000 0.000000 0.680894 0.493908 0.090283 0.000000 0.000000 0.000000 0.207902 -2.756897 0.511019 1.580121 5.469548 -1.112695 14.319627 10.650770 4.272768 -20.645214 -10.955225 -6.744583 0.000000 0.000000 0.000000 0.000000 0.000000 0.000000 1.589999 -0.343540 0.063286 -4.564743 0.771258 0.637034 -4.661747 6.642404 -2.729001 -0.991697 2.291160 3.579532 0.000000 0.000000 0.000000 0.000000 0.000000 0.000000 2.024286 0.045907 2.952332 -2.223298 1.582948 -0.138194 0.432877 -1.648129 1.385552 0.000000 0.000000 0.000000 1.465793 0.415928 2.963845 -1.913078 0.225743 -0.257851 0.703319 0.007097 1.544463 0.000000 0.000000 0.000000
